<svg width="240" height="120" viewBox="0 0 240 120" fill="none" xmlns="http://www.w3.org/2000/svg">
<rect width="240" height="120" rx="8" fill="#D7D7D7"/>
<path d="M106.67 78.7959L106.597 74.5479C106.353 71.0811 106.646 67.9805 107.476 65.2461C108.306 62.5117 109.722 60.0459 111.724 57.8486C113.774 55.6025 116.46 53.5029 119.78 51.5498C122.954 49.6455 125.42 47.9121 127.178 46.3496C128.984 44.7871 130.254 43.1514 130.986 41.4424C131.719 39.7334 132.085 37.7314 132.085 35.4365V35.3633C132.085 32.9707 131.499 30.8955 130.327 29.1377C129.155 27.3311 127.52 25.915 125.42 24.8896C123.369 23.8643 120.952 23.3516 118.169 23.3516C115.386 23.3516 112.944 23.9131 110.845 25.0361C108.745 26.1592 107.085 27.6973 105.864 29.6504C104.644 31.6035 103.96 33.8496 103.813 36.3887L103.74 36.9746H83.8916V36.2422C84.0869 30.5293 85.5762 25.4268 88.3594 20.9346C91.1914 16.3936 95.2197 12.8291 100.444 10.2412C105.669 7.65332 112.017 6.35938 119.487 6.35938C126.47 6.35938 132.549 7.55566 137.725 9.94824C142.949 12.3408 147.002 15.6611 149.883 19.9092C152.812 24.1572 154.277 29.0889 154.277 34.7041V34.7773C154.277 38.4395 153.691 41.7598 152.52 44.7383C151.348 47.7168 149.59 50.4268 147.246 52.8682C144.951 55.2607 142.07 57.4824 138.604 59.5332C135.381 61.3887 132.866 63.1221 131.06 64.7334C129.253 66.2959 127.983 67.9561 127.251 69.7139C126.519 71.4229 126.152 73.4492 126.152 75.793V78.7959H106.67ZM116.704 113.879C113.384 113.879 110.552 112.78 108.208 110.583C105.913 108.337 104.766 105.603 104.766 102.38C104.766 99.1572 105.913 96.4473 108.208 94.25C110.552 92.0039 113.384 90.8809 116.704 90.8809C120.073 90.8809 122.905 92.0039 125.2 94.25C127.544 96.4473 128.716 99.1572 128.716 102.38C128.716 105.603 127.544 108.337 125.2 110.583C122.905 112.78 120.073 113.879 116.704 113.879Z" fill="#2962FF" fill-opacity="0.6"/>
<rect x="70" y="25" width="100" height="70" rx="8" fill="#A8A5A5" fill-opacity="0.9"/>
<path d="M104.546 63.5388C105.335 62.7035 106.665 62.7035 107.454 63.5388L133.99 91.6265C135.195 92.9019 134.291 95 132.536 95H79.464C77.7094 95 76.8053 92.9019 78.0102 91.6265L104.546 63.5388Z" fill="#2962FF"/>
<path d="M128.356 52.3729C129.151 51.2249 130.849 51.2249 131.644 52.3729L159.002 91.861C159.921 93.1874 158.972 95 157.358 95H102.642C101.028 95 100.079 93.1874 100.998 91.861L128.356 52.3729Z" fill="#2962FF"/>
<circle cx="89" cy="46" r="10" fill="#2962FF"/>
</svg>
