<svg width="120" height="120" viewBox="0 0 120 120" fill="none" xmlns="http://www.w3.org/2000/svg">
<rect width="120" height="120" rx="12" fill="#D7D7D7"/>
<path d="M46.6699 78.7959L46.5967 74.5479C46.3525 71.0811 46.6455 67.9805 47.4756 65.2461C48.3057 62.5117 49.7217 60.0459 51.7236 57.8486C53.7744 55.6025 56.46 53.5029 59.7803 51.5498C62.9541 49.6455 65.4199 47.9121 67.1777 46.3496C68.9844 44.7871 70.2539 43.1514 70.9863 41.4424C71.7188 39.7334 72.085 37.7314 72.085 35.4365V35.3633C72.085 32.9707 71.499 30.8955 70.3271 29.1377C69.1553 27.3311 67.5195 25.915 65.4199 24.8896C63.3691 23.8643 60.9521 23.3516 58.1689 23.3516C55.3857 23.3516 52.9443 23.9131 50.8447 25.0361C48.7451 26.1592 47.085 27.6973 45.8643 29.6504C44.6436 31.6035 43.96 33.8496 43.8135 36.3887L43.7402 36.9746H23.8916V36.2422C24.0869 30.5293 25.5762 25.4268 28.3594 20.9346C31.1914 16.3936 35.2197 12.8291 40.4443 10.2412C45.6689 7.65332 52.0166 6.35938 59.4873 6.35938C66.4697 6.35938 72.5488 7.55566 77.7246 9.94824C82.9492 12.3408 87.002 15.6611 89.8828 19.9092C92.8125 24.1572 94.2773 29.0889 94.2773 34.7041V34.7773C94.2773 38.4395 93.6914 41.7598 92.5195 44.7383C91.3477 47.7168 89.5898 50.4268 87.2461 52.8682C84.9512 55.2607 82.0703 57.4824 78.6035 59.5332C75.3809 61.3887 72.8662 63.1221 71.0596 64.7334C69.2529 66.2959 67.9834 67.9561 67.251 69.7139C66.5186 71.4229 66.1523 73.4492 66.1523 75.793V78.7959H46.6699ZM56.7041 113.879C53.3838 113.879 50.5518 112.78 48.208 110.583C45.9131 108.337 44.7656 105.603 44.7656 102.38C44.7656 99.1572 45.9131 96.4473 48.208 94.25C50.5518 92.0039 53.3838 90.8809 56.7041 90.8809C60.0732 90.8809 62.9053 92.0039 65.2002 94.25C67.5439 96.4473 68.7158 99.1572 68.7158 102.38C68.7158 105.603 67.5439 108.337 65.2002 110.583C62.9053 112.78 60.0732 113.879 56.7041 113.879Z" fill="#2962FF" fill-opacity="0.6"/>
<rect x="10" y="25" width="100" height="70" rx="8" fill="#A8A5A5" fill-opacity="0.9"/>
<path d="M44.5462 63.5388C45.3354 62.7035 46.6646 62.7035 47.4538 63.5388L73.9898 91.6265C75.1947 92.9019 74.2905 95 72.536 95H19.464C17.7094 95 16.8053 92.9019 18.0102 91.6265L44.5462 63.5388Z" fill="#2962FF"/>
<path d="M68.356 52.3729C69.1514 51.2249 70.8486 51.2249 71.644 52.3729L99.0022 91.861C99.9211 93.1874 98.9718 95 97.3582 95H42.6418C41.0282 95 40.0789 93.1874 40.9978 91.861L68.356 52.3729Z" fill="#2962FF"/>
<circle cx="29" cy="46" r="10" fill="#2962FF"/>
</svg>
